<svg width="670" height="670" viewBox="0 0 670 670" fill="none" xmlns="http://www.w3.org/2000/svg">
<rect width="670" height="670" rx="141" fill="#FFD912"/>
<path d="M276 386C272.134 386 268.981 382.863 269.181 379.002C271.131 341.236 288.818 305.372 318.938 278.52C350.913 250.014 394.281 234 439.5 234C484.719 234 528.087 250.014 560.062 278.52C590.182 305.372 607.869 341.236 609.819 379.002C610.019 382.863 606.866 386 603 386L439.5 386L276 386Z" fill="white"/>
<path d="M65 386.5C61.134 386.5 57.9876 383.364 58.1187 379.5C59.7472 331.519 78.0703 285.869 109.549 251.796C142.556 216.071 187.322 196 234 196C280.678 196 325.444 216.07 358.451 251.796C389.93 285.868 408.253 331.518 409.881 379.499C410.012 383.363 406.866 386.5 403 386.5L234 386.5L65 386.5Z" fill="white" fill-opacity="0.7"/>
<path d="M133.977 387H109.543V355.301H72.6875V387H48.1953V305.789H72.6875V335.613H109.543V305.789H133.977V387ZM216.77 357.117C216.77 363.055 215.48 368.348 212.902 372.996C210.324 377.645 206.457 381.316 201.301 384.012C196.184 386.707 189.934 388.055 182.551 388.055C175.168 388.055 168.898 386.707 163.742 384.012C158.625 381.316 154.777 377.645 152.199 372.996C149.66 368.348 148.391 363.055 148.391 357.117C148.391 352.625 149.094 348.543 150.5 344.871C151.945 341.199 154.113 337.957 157.004 335.145C159.934 332.293 163.527 330.105 167.785 328.582C172.043 327.059 176.965 326.297 182.551 326.297C188.176 326.297 193.137 327.078 197.434 328.641C201.77 330.164 205.344 332.312 208.156 335.086C211.008 337.859 213.156 341.102 214.602 344.812C216.047 348.523 216.77 352.625 216.77 357.117ZM194.562 357.117C194.562 352.391 193.527 348.699 191.457 346.043C189.426 343.348 186.457 342 182.551 342C178.684 342 175.715 343.348 173.645 346.043C171.613 348.699 170.598 352.391 170.598 357.117C170.598 361.805 171.633 365.516 173.703 368.25C175.773 370.984 178.723 372.352 182.551 372.352C186.457 372.352 189.426 371.004 191.457 368.309C193.527 365.574 194.562 361.844 194.562 357.117ZM334.074 387H312.98V355.184C312.98 350.965 312.277 347.82 310.871 345.75C309.504 343.641 307.316 342.586 304.309 342.586C301.379 342.586 298.977 343.484 297.102 345.281C295.227 347.039 293.352 349.266 291.477 351.961V387H270.383V355.184C270.383 351.16 269.738 348.055 268.449 345.867C267.16 343.68 264.875 342.586 261.594 342.586C260.031 342.586 258.586 342.898 257.258 343.523C255.969 344.148 254.914 344.852 254.094 345.633C253.273 346.414 252.277 347.566 251.105 349.09C249.934 350.613 249.191 351.57 248.879 351.961V387H227.785V327.352H248.879V335.906C252.043 332.547 255.266 330.105 258.547 328.582C261.828 327.059 265.617 326.297 269.914 326.297C271.945 326.297 273.879 326.492 275.715 326.883C277.551 327.234 279.348 327.859 281.105 328.758C282.902 329.656 284.523 330.887 285.969 332.449C287.414 334.012 288.566 335.828 289.426 337.898C292.824 334.07 296.34 331.18 299.973 329.227C303.645 327.273 307.863 326.297 312.629 326.297C317.395 326.297 321.379 327.254 324.582 329.168C327.824 331.082 330.207 333.855 331.73 337.488C333.293 341.082 334.074 345.457 334.074 350.613V387ZM407.785 362.273H365.773C366.594 365.906 368.605 368.875 371.809 371.18C375.012 373.484 378.645 374.637 382.707 374.637C389.816 374.637 397.668 372.645 406.262 368.66V381.727C403.176 383.328 399.426 384.793 395.012 386.121C390.637 387.41 385.051 388.055 378.254 388.055C370.91 388.055 364.66 386.688 359.504 383.953C354.348 381.219 350.48 377.508 347.902 372.82C345.363 368.133 344.094 362.82 344.094 356.883C344.094 351.023 345.363 345.789 347.902 341.18C350.48 336.531 354.348 332.898 359.504 330.281C364.66 327.625 370.91 326.297 378.254 326.297C383.098 326.297 387.766 327.352 392.258 329.461C396.789 331.531 400.5 334.949 403.391 339.715C406.32 344.441 407.785 350.555 407.785 358.055V362.273ZM387.98 351.844C387.98 348.016 387.023 344.969 385.109 342.703C383.234 340.398 380.52 339.246 376.965 339.246C373.449 339.246 370.598 340.418 368.41 342.762C366.262 345.066 365.188 348.094 365.188 351.844H387.98ZM418.332 414.48V333.094H437.023C446.594 333.094 454.035 335.477 459.348 340.242C464.699 345.008 467.375 351.668 467.375 360.223C467.375 368.309 464.855 374.949 459.816 380.145C454.816 385.34 448.43 387.938 440.656 387.938C437.219 387.938 433.41 387.176 429.23 385.652V414.48H418.332ZM436.789 343.055H429.23V376.219C432.512 377.898 435.949 378.738 439.543 378.738C444.543 378.738 448.625 377 451.789 373.523C454.992 370.047 456.594 365.574 456.594 360.105C456.594 356.59 455.832 353.484 454.309 350.789C452.824 348.094 450.773 346.141 448.156 344.93C445.578 343.68 441.789 343.055 436.789 343.055ZM512.902 354.598V377.508C512.902 379.344 513.527 380.262 514.777 380.262C516.066 380.262 518.078 379.305 520.812 377.391V383.895C518.391 385.457 516.438 386.512 514.953 387.059C513.508 387.645 511.984 387.938 510.383 387.938C505.812 387.938 503.117 386.141 502.297 382.547C497.766 386.062 492.941 387.82 487.824 387.82C484.074 387.82 480.949 386.59 478.449 384.129C475.949 381.629 474.699 378.504 474.699 374.754C474.699 371.355 475.91 368.328 478.332 365.672C480.793 362.977 484.27 360.848 488.762 359.285L502.414 354.598V351.727C502.414 345.242 499.172 342 492.688 342C486.867 342 481.203 345.008 475.695 351.023V339.363C479.836 334.48 485.793 332.039 493.566 332.039C499.387 332.039 504.055 333.562 507.57 336.609C508.742 337.586 509.797 338.895 510.734 340.535C511.672 342.137 512.258 343.758 512.492 345.398C512.766 347 512.902 350.066 512.902 354.598ZM502.414 376.336V360.34L495.266 363.094C491.633 364.539 489.055 366.004 487.531 367.488C486.047 368.934 485.305 370.75 485.305 372.938C485.305 375.164 486.008 376.98 487.414 378.387C488.859 379.793 490.715 380.496 492.98 380.496C496.379 380.496 499.523 379.109 502.414 376.336ZM527.492 351.727C527.492 345.984 529.582 341.453 533.762 338.133C537.98 334.773 543.723 333.094 550.988 333.094H573.195V341.414H562.297C564.406 343.562 565.871 345.516 566.691 347.273C567.512 349.031 567.922 351.043 567.922 353.309C567.922 356.121 567.121 358.895 565.52 361.629C563.918 364.324 561.848 366.395 559.309 367.84C556.809 369.285 552.688 370.438 546.945 371.297C542.922 371.883 540.91 373.27 540.91 375.457C540.91 376.707 541.652 377.742 543.137 378.562C544.66 379.344 547.395 380.164 551.34 381.023C557.941 382.469 562.18 383.602 564.055 384.422C565.969 385.242 567.688 386.414 569.211 387.938C571.789 390.516 573.078 393.758 573.078 397.664C573.078 402.781 570.793 406.863 566.223 409.91C561.691 412.957 555.617 414.48 548 414.48C540.305 414.48 534.152 412.938 529.543 409.852C524.973 406.805 522.688 402.703 522.688 397.547C522.688 390.242 527.199 385.535 536.223 383.426C532.629 381.121 530.832 378.836 530.832 376.57C530.832 374.852 531.594 373.289 533.117 371.883C534.68 370.477 536.77 369.441 539.387 368.777C531.457 365.262 527.492 359.578 527.492 351.727ZM547.531 342.352C544.641 342.352 542.18 343.328 540.148 345.281C538.117 347.234 537.102 349.578 537.102 352.312C537.102 355.086 538.098 357.391 540.09 359.227C542.082 361.023 544.602 361.922 547.648 361.922C550.656 361.922 553.156 361.004 555.148 359.168C557.18 357.293 558.195 354.969 558.195 352.195C558.195 349.383 557.18 347.039 555.148 345.164C553.117 343.289 550.578 342.352 547.531 342.352ZM545.012 389.52C541.418 389.52 538.469 390.281 536.164 391.805C533.898 393.328 532.766 395.281 532.766 397.664C532.766 403.211 537.766 405.984 547.766 405.984C552.492 405.984 556.145 405.281 558.723 403.875C561.34 402.508 562.648 400.555 562.648 398.016C562.648 395.516 561.008 393.465 557.727 391.863C554.445 390.301 550.207 389.52 545.012 389.52ZM627.395 360.984H589.484C589.758 366.141 591.477 370.242 594.641 373.289C597.844 376.336 601.965 377.859 607.004 377.859C614.035 377.859 620.52 375.672 626.457 371.297V381.727C623.176 383.914 619.914 385.477 616.672 386.414C613.469 387.352 609.699 387.82 605.363 387.82C599.426 387.82 594.621 386.59 590.949 384.129C587.277 381.668 584.328 378.367 582.102 374.227C579.914 370.047 578.82 365.223 578.82 359.754C578.82 351.551 581.145 344.891 585.793 339.773C590.441 334.617 596.477 332.039 603.898 332.039C611.047 332.039 616.75 334.539 621.008 339.539C625.266 344.539 627.395 351.238 627.395 359.637V360.984ZM589.719 354.598H616.848C616.574 350.34 615.305 347.059 613.039 344.754C610.773 342.449 607.727 341.297 603.898 341.297C600.07 341.297 596.926 342.449 594.465 344.754C592.043 347.059 590.461 350.34 589.719 354.598Z" fill="black"/>
</svg>
