<svg width="670" height="670" viewBox="0 0 670 670" fill="none" xmlns="http://www.w3.org/2000/svg">
<rect width="670" height="670" rx="134" fill="#FFD80B" fill-opacity="0.97"/>
<path d="M96.1602 319.449V366.822H154.571V319.449H176.324V432H154.571V384.466H96.1602V432H74.4072V319.449H96.1602ZM404.488 319.449L441.468 363.841L478.448 319.449H497.864V432H476.111V352.964H475.467L442.918 392.603H439.856L407.308 352.964H406.663V432H384.91V319.449H404.488ZM595.43 319.449V336.448H544.432V366.016H593.255V383.016H544.432V415H596.558V432H522.679V319.449H595.43Z" fill="#0A0A0A"/>
<path d="M79.2266 588.977V491.312H101.656C113.141 491.312 122.07 494.172 128.445 499.891C134.867 505.609 138.078 513.602 138.078 523.867C138.078 533.57 135.055 541.539 129.008 547.773C123.008 554.008 115.344 557.125 106.016 557.125C101.891 557.125 97.3203 556.211 92.3047 554.383V588.977H79.2266ZM101.375 503.266H92.3047V543.062C96.2422 545.078 100.367 546.086 104.68 546.086C110.68 546.086 115.578 544 119.375 539.828C123.219 535.656 125.141 530.289 125.141 523.727C125.141 519.508 124.227 515.781 122.398 512.547C120.617 509.312 118.156 506.969 115.016 505.516C111.922 504.016 107.375 503.266 101.375 503.266ZM192.711 517.117V544.609C192.711 546.812 193.461 547.914 194.961 547.914C196.508 547.914 198.922 546.766 202.203 544.469V552.273C199.297 554.148 196.953 555.414 195.172 556.07C193.438 556.773 191.609 557.125 189.688 557.125C184.203 557.125 180.969 554.969 179.984 550.656C174.547 554.875 168.758 556.984 162.617 556.984C158.117 556.984 154.367 555.508 151.367 552.555C148.367 549.555 146.867 545.805 146.867 541.305C146.867 537.227 148.32 533.594 151.227 530.406C154.18 527.172 158.352 524.617 163.742 522.742L180.125 517.117V513.672C180.125 505.891 176.234 502 168.453 502C161.469 502 154.672 505.609 148.062 512.828V498.836C153.031 492.977 160.18 490.047 169.508 490.047C176.492 490.047 182.094 491.875 186.312 495.531C187.719 496.703 188.984 498.273 190.109 500.242C191.234 502.164 191.938 504.109 192.219 506.078C192.547 508 192.711 511.68 192.711 517.117ZM180.125 543.203V524.008L171.547 527.312C167.188 529.047 164.094 530.805 162.266 532.586C160.484 534.32 159.594 536.5 159.594 539.125C159.594 541.797 160.438 543.977 162.125 545.664C163.859 547.352 166.086 548.195 168.805 548.195C172.883 548.195 176.656 546.531 180.125 543.203ZM210.219 513.672C210.219 506.781 212.727 501.344 217.742 497.359C222.805 493.328 229.695 491.312 238.414 491.312H265.062V501.297H251.984C254.516 503.875 256.273 506.219 257.258 508.328C258.242 510.438 258.734 512.852 258.734 515.57C258.734 518.945 257.773 522.273 255.852 525.555C253.93 528.789 251.445 531.273 248.398 533.008C245.398 534.742 240.453 536.125 233.562 537.156C228.734 537.859 226.32 539.523 226.32 542.148C226.32 543.648 227.211 544.891 228.992 545.875C230.82 546.812 234.102 547.797 238.836 548.828C246.758 550.562 251.844 551.922 254.094 552.906C256.391 553.891 258.453 555.297 260.281 557.125C263.375 560.219 264.922 564.109 264.922 568.797C264.922 574.938 262.18 579.836 256.695 583.492C251.258 587.148 243.969 588.977 234.828 588.977C225.594 588.977 218.211 587.125 212.68 583.422C207.195 579.766 204.453 574.844 204.453 568.656C204.453 559.891 209.867 554.242 220.695 551.711C216.383 548.945 214.227 546.203 214.227 543.484C214.227 541.422 215.141 539.547 216.969 537.859C218.844 536.172 221.352 534.93 224.492 534.133C214.977 529.914 210.219 523.094 210.219 513.672ZM234.266 502.422C230.797 502.422 227.844 503.594 225.406 505.938C222.969 508.281 221.75 511.094 221.75 514.375C221.75 517.703 222.945 520.469 225.336 522.672C227.727 524.828 230.75 525.906 234.406 525.906C238.016 525.906 241.016 524.805 243.406 522.602C245.844 520.352 247.062 517.562 247.062 514.234C247.062 510.859 245.844 508.047 243.406 505.797C240.969 503.547 237.922 502.422 234.266 502.422ZM231.242 559.023C226.93 559.023 223.391 559.938 220.625 561.766C217.906 563.594 216.547 565.938 216.547 568.797C216.547 575.453 222.547 578.781 234.547 578.781C240.219 578.781 244.602 577.938 247.695 576.25C250.836 574.609 252.406 572.266 252.406 569.219C252.406 566.219 250.438 563.758 246.5 561.836C242.562 559.961 237.477 559.023 231.242 559.023ZM330.102 524.781H284.609C284.938 530.969 287 535.891 290.797 539.547C294.641 543.203 299.586 545.031 305.633 545.031C314.07 545.031 321.852 542.406 328.977 537.156V549.672C325.039 552.297 321.125 554.172 317.234 555.297C313.391 556.422 308.867 556.984 303.664 556.984C296.539 556.984 290.773 555.508 286.367 552.555C281.961 549.602 278.422 545.641 275.75 540.672C273.125 535.656 271.812 529.867 271.812 523.305C271.812 513.461 274.602 505.469 280.18 499.328C285.758 493.141 293 490.047 301.906 490.047C310.484 490.047 317.328 493.047 322.438 499.047C327.547 505.047 330.102 513.086 330.102 523.164V524.781ZM284.891 517.117H317.445C317.117 512.008 315.594 508.07 312.875 505.305C310.156 502.539 306.5 501.156 301.906 501.156C297.312 501.156 293.539 502.539 290.586 505.305C287.68 508.07 285.781 512.008 284.891 517.117Z" fill="black"/>
<circle cx="281.5" cy="372.5" r="66.5" fill="black"/>
<path fill-rule="evenodd" clip-rule="evenodd" d="M302.098 372.422C318.368 380.209 321.957 389.649 320.761 404.752C320.521 407.112 318.607 409 316.215 409H247.785C245.393 409 243.478 407.112 243.239 404.752C242.043 389.649 245.632 380.209 261.902 372.422C263.337 371.478 265.012 371.714 266.448 372.658C270.994 375.49 276.258 377.142 282 377.142C287.742 377.142 293.006 375.49 297.552 372.658C298.988 371.714 300.663 371.478 302.098 372.422Z" fill="white"/>
<path fill-rule="evenodd" clip-rule="evenodd" d="M282 329C293.006 329 302.098 337.968 302.098 348.823C302.098 359.678 293.006 368.646 282 368.646C270.994 368.646 261.902 359.678 261.902 348.823C261.902 337.968 270.994 329 282 329Z" fill="white"/>
<line x1="88" y1="110" x2="268" y2="110" stroke="white" stroke-width="34" stroke-linecap="round"/>
<line x1="88" y1="188" x2="201" y2="188" stroke="white" stroke-width="34" stroke-linecap="round"/>
</svg>
